<?xml version="1.0" encoding="UTF-8" standalone="no"?>
<svg
   width="45"
   height="45"
   viewBox="0 0 45 45"
   fill="none"
   version="1.1"
   id="svg20"
   sodipodi:docname="sun.svg"
   inkscape:version="1.2.2 (732a01da63, 2022-12-09)"
   xmlns:inkscape="http://www.inkscape.org/namespaces/inkscape"
   xmlns:sodipodi="http://sodipodi.sourceforge.net/DTD/sodipodi-0.dtd"
   xmlns="http://www.w3.org/2000/svg"
   xmlns:svg="http://www.w3.org/2000/svg">
  <defs
     id="defs24" />
  <sodipodi:namedview
     id="namedview22"
     pagecolor="#ffffff"
     bordercolor="#000000"
     borderopacity="0.25"
     inkscape:showpageshadow="2"
     inkscape:pageopacity="0.0"
     inkscape:pagecheckerboard="0"
     inkscape:deskcolor="#d1d1d1"
     showgrid="false"
     inkscape:zoom="13.026478"
     inkscape:cx="28.211769"
     inkscape:cy="23.87445"
     inkscape:window-width="1920"
     inkscape:window-height="1009"
     inkscape:window-x="-8"
     inkscape:window-y="-8"
     inkscape:window-maximized="1"
     inkscape:current-layer="svg20" />
  <path
     d="m 22.8374,17.2125 c 1.1125,0 2.2001,0.3299 3.1251,0.948 0.925,0.6181 1.646,1.4966 2.0717,2.5244 0.4258,1.0278 0.5372,2.1588 0.3201,3.25 -0.217,1.0911 -0.7528,2.0934 -1.5394,2.8801 -0.7867,0.7866 -1.789,1.3224 -2.8801,1.5394 -1.0912,0.2171 -2.2222,0.1057 -3.25,-0.3201 -1.0278,-0.4257 -1.9063,-1.1467 -2.5244,-2.0717 -0.6181,-0.925 -0.948,-2.0126 -0.948,-3.1251 0.0019,-1.4913 0.5951,-2.9209 1.6496,-3.9754 1.0545,-1.0545 2.4841,-1.6477 3.9754,-1.6496 z m 0,-2.8125 c -1.6688,0 -3.3001,0.4949 -4.6876,1.422 -1.3876,0.9271 -2.469,2.2449 -3.1076,3.7866 -0.6386,1.5418 -0.8057,3.2383 -0.4802,4.875 0.3256,1.6367 1.1292,3.1401 2.3092,4.3201 1.18,1.18 2.6834,1.9836 4.3201,2.3092 1.6367,0.3255 3.3332,0.1584 4.875,-0.4802 1.5417,-0.6386 2.8595,-1.72 3.7866,-3.1076 0.9272,-1.3875 1.422,-3.0188 1.422,-4.6876 0,-2.2378 -0.8889,-4.3839 -2.4713,-5.9662 C 27.2213,15.2889 25.0752,14.4 22.8374,14.4 Z"
     fill="#ffffff"
     id="path2"
     style="display:inline;fill:#ffff00;fill-opacity:1" />
  <path
     d="M7.58521 9.58078L9.57364 7.59094L14.504 12.5212L12.5155 14.5097L7.58521 9.58078Z"
     fill="white"
     id="path4"
     style="fill:#ffff00;fill-opacity:1" />
  <path
     d="M2.8125 21.1008H9.84375V23.9133H2.8125V21.1008Z"
     fill="white"
     id="path6"
     style="fill:#ffff00;fill-opacity:1" />
  <path
     d="M7.58521 35.4333L12.5155 30.503L14.504 32.4928L9.57364 37.4217L7.58521 35.4333Z"
     fill="white"
     id="path8"
     style="fill:#ffff00;fill-opacity:1" />
  <path
     d="M21.0938 35.1633H23.9062V42.1945H21.0938V35.1633Z"
     fill="white"
     id="path10"
     style="fill:#ffff00;fill-opacity:1" />
  <path
     d="M30.4973 32.4928L32.4858 30.503L37.4161 35.4333L35.4276 37.4217L30.4973 32.4928Z"
     fill="white"
     id="path12"
     style="fill:#ffff00;fill-opacity:1" />
  <path
     d="M35.1562 21.1008H42.1875V23.9133H35.1562V21.1008Z"
     fill="white"
     id="path14"
     style="fill:#ffff00;fill-opacity:1" />
  <path
     d="M30.4973 12.5212L35.4276 7.59094L37.4161 9.58078L32.4858 14.5097L30.4973 12.5212Z"
     fill="white"
     id="path16"
     style="fill:#ffff00;fill-opacity:1" />
  <path
     d="M21.0938 2.81953H23.9062V9.85078H21.0938V2.81953Z"
     fill="white"
     id="path18"
     style="fill:#ffff00;fill-opacity:1" />
</svg>
