<?xml version="1.0" encoding="UTF-8" standalone="no"?>
<!-- Uploaded to: SVG Repo, www.svgrepo.com, Generator: SVG Repo Mixer Tools -->

<svg
   fill="#000000"
   height="800px"
   width="800px"
   version="1.1"
   id="Capa_1"
   viewBox="0 0 482.568 482.568"
   xml:space="preserve"
   sodipodi:docname="settings.svg"
   inkscape:version="1.2.2 (732a01da63, 2022-12-09)"
   xmlns:inkscape="http://www.inkscape.org/namespaces/inkscape"
   xmlns:sodipodi="http://sodipodi.sourceforge.net/DTD/sodipodi-0.dtd"
   xmlns="http://www.w3.org/2000/svg"
   xmlns:svg="http://www.w3.org/2000/svg"><defs
   id="defs15" /><sodipodi:namedview
   id="namedview13"
   pagecolor="#ffffff"
   bordercolor="#000000"
   borderopacity="0.25"
   inkscape:showpageshadow="2"
   inkscape:pageopacity="0.0"
   inkscape:pagecheckerboard="0"
   inkscape:deskcolor="#d1d1d1"
   showgrid="false"
   inkscape:zoom="1.03625"
   inkscape:cx="344.99397"
   inkscape:cy="399.51749"
   inkscape:window-width="1920"
   inkscape:window-height="1009"
   inkscape:window-x="-8"
   inkscape:window-y="-8"
   inkscape:window-maximized="1"
   inkscape:current-layer="g8" />
<g
   id="g10">
	<g
   id="g8">
		<path
   d="M116.993,203.218c13.4-1.8,26.8,2.8,36.3,12.3l24,24l22.7-22.6l-32.8-32.7c-5.1-5.1-5.1-13.4,0-18.5s13.4-5.1,18.5,0    l32.8,32.8l22.7-22.6l-24.1-24.1c-9.5-9.5-14.1-23-12.3-36.3c4-30.4-5.7-62.2-29-85.6c-23.8-23.8-56.4-33.4-87.3-28.8    c-4.9,0.7-6.9,6.8-3.4,10.3l30.9,30.9c14.7,14.7,14.7,38.5,0,53.1l-19,19c-14.7,14.7-38.5,14.7-53.1,0l-31-30.9    c-3.5-3.5-9.5-1.5-10.3,3.4c-4.6,30.9,5,63.5,28.8,87.3C54.793,197.518,86.593,207.218,116.993,203.218z"
   id="path2" />
		<path
   d="M309.193,243.918l-22.7,22.6l134.8,134.8c5.1,5.1,5.1,13.4,0,18.5s-13.4,5.1-18.5,0l-134.8-134.8l-22.7,22.6l138.9,138.9    c17.6,17.6,46.1,17.5,63.7-0.1s17.6-46.1,0.1-63.7L309.193,243.918z"
   id="path4" />
		<path
   d="M361.293,153.918h59.9l59.9-119.7l-29.9-29.9l-119.8,59.8v59.9l-162.8,162.3l-29.3-29.2l-118,118    c-24.6,24.6-24.6,64.4,0,89s64.4,24.6,89,0l118-118l-29.9-29.9L361.293,153.918z"
   id="path6"
   style="stroke-width:1.00012218;stroke-dasharray:none" />
	<path
   style="fill:#b3b3b3;stroke-width:1.6;stroke-dasharray:none;fill-opacity:1"
   d="M 100.36188,798.89108 C 64.929231,796.33554 32.566515,774.27958 16.372857,741.65056 -0.56263122,707.52681 2.1443876,669.06879 23.765975,636.61811 26.373948,632.70394 62.861574,595.48207 129.42789,528.82992 l 101.67831,-101.80941 24.13156,24.1165 24.13157,24.11652 16.64826,-16.39177 c 9.15655,-9.01548 69.95346,-69.5898 135.10424,-134.60961 l 118.45597,-118.21784 0.0462,-49.69991 0.0462,-49.6999 99.22489,-49.348706 99.22488,-49.3487062 24.32887,24.3429052 24.32887,24.342906 -49.53266,99.070941 -49.53264,99.07094 -49.70063,0.053 -49.70062,0.053 L 463.22329,389.4455 328.13543,524.02024 352.97411,548.8727 377.81278,573.72516 276.2405,675.14149 C 189.04359,762.2046 173.47298,777.3417 166.22269,782.09641 c -19.8129,12.99317 -41.58633,18.54544 -65.86081,16.79467 z"
   id="path1876"
   transform="scale(0.60321)" /><path
   style="fill:#b3b3b3;fill-opacity:1;stroke-width:1.6;stroke-dasharray:none"
   d="m 674.41768,760.01997 c -7.43403,-1.69414 -16.1605,-5.19711 -23.2995,-9.35284 -4.15741,-2.4201 -34.89928,-32.5351 -124.46446,-121.92646 l -118.94338,-118.71254 18.33901,-18.33901 18.33901,-18.339 113.14961,113.10794 c 80.09545,80.06594 114.19771,113.54133 116.73743,114.59152 8.38081,3.46553 21.05843,0.36546 26.06615,-6.37396 4.71847,-6.35016 6.01365,-15.80939 3.12359,-22.81277 -1.04947,-2.54313 -34.41654,-36.53386 -114.59356,-116.73539 L 475.75859,441.97988 494.09964,423.63884 512.44068,405.2978 631.15322,524.24118 c 123.75912,123.99977 121.93947,122.06092 127.51792,135.87175 5.6743,14.04815 6.59466,33.74101 2.2306,47.72784 -4.03565,12.9343 -9.19797,21.35892 -19.24374,31.40468 -10.02978,10.02978 -18.4058,15.16807 -31.40468,19.26526 -8.66736,2.73191 -27.06962,3.50694 -35.83564,1.50926 z"
   id="path1947"
   transform="scale(0.60321)" /><path
   style="fill:#b3b3b3;fill-opacity:1;stroke-width:1.6;stroke-dasharray:none"
   d="m 272.6092,374.83555 c -26.17823,-26.28222 -32.66451,-31.05969 -49.23185,-36.26179 -6.57812,-2.06551 -8.53041,-2.23042 -22.17108,-1.87268 -31.0575,0.81448 -48.47488,0.45269 -57.41857,-1.19272 C 106.76504,328.69717 76.385924,312.50871 50.390526,285.73876 28.076245,262.75961 13.15896,234.52021 6.246543,202.17129 3.760268,190.53595 2.5889366,160.01796 4.1908782,148.61279 c 0.8711375,-6.20215 1.4401176,-7.61732 3.9769295,-9.89144 3.1397483,-2.81462 6.5301123,-3.34794 9.9897233,-1.57141 1.159317,0.59531 15.569851,14.42952 32.02341,30.74269 28.669373,28.42475 30.257257,29.82756 38.118215,33.67564 18.576854,9.0937 37.984464,9.0611 56.936064,-0.0957 7.79122,-3.76445 9.3697,-5.12903 31.46975,-27.20525 21.65838,-21.63503 23.53819,-23.79001 27.18802,-31.16782 5.48789,-11.09329 7.36961,-20.27787 6.66188,-32.51622 C 209.93501,99.864598 208.60584,94.752919 203.92542,85.088047 201.18364,79.426384 197.11154,74.916892 170.19723,47.737132 151.00253,28.353116 139.34571,15.86272 138.93947,14.244164 137.37989,8.0302875 141.96082,3.0144587 150.27664,1.8306751 159.43156,0.527444 185.4952,0.88994382 196.12521,2.4683489 252.75772,10.877468 300.013,46.187742 324.58566,98.457071 c 11.88656,25.284299 16.36862,48.393809 15.0618,77.658729 -1.50144,33.62364 -0.99442,39.42719 4.66957,53.44982 4.02662,9.96893 9.59582,16.83378 32.22322,39.71984 l 22.46651,22.72333 -18.33906,18.25098 -18.33907,18.25099 -29.17397,-29.04053 c -32.02902,-31.88251 -31.79707,-31.71387 -42.66717,-31.02172 -11.29782,0.71939 -18.91043,8.38189 -19.63518,19.76382 -0.68947,10.82801 -0.43403,11.17842 31.18671,42.78117 l 28.47653,28.46033 -18.08299,18.10179 c -9.94565,9.95599 -18.3082,18.1018 -18.58344,18.1018 -0.27525,0 -9.83322,-9.36983 -21.23992,-20.82187 z"
   id="path1949"
   transform="scale(0.60321)" /></g>
</g>
</svg>
