<svg xmlns="http://www.w3.org/2000/svg" viewBox="0 0 374.11 453.86"><defs><style>.cls-1{isolation:isolate;}.cls-2{fill:#bfc5c8;}.cls-3{fill:#8f9ca1;}.cls-4{fill:#323d49;}.cls-5,.cls-8{fill:#fff;}.cls-5{mix-blend-mode:soft-light;opacity:0.5;}.cls-6{fill:#18202e;}.cls-7{fill:none;stroke:#d64c27;stroke-miterlimit:10;stroke-width:2.98px;}</style></defs><g class="cls-1"><g id="Layer_1" data-name="Layer 1"><path class="cls-2" d="M250.05,340h-23.6c0-114.26,71.49-132.13,74.53-132.83l5.32,23-2.66-11.5,2.77,11.47C304.11,230.75,250.05,245.44,250.05,340Z" transform="translate(-212.7 -56.65)"/><path class="cls-3" d="M226.82,326.42c-.09,1.54-.15,3.11-.21,4.69a30.92,30.92,0,0,0,12.66,2.66,38.91,38.91,0,0,0,10.92-1.64c.05-1.56.11-3.1.19-4.61C245.3,329.21,235.81,331.13,226.82,326.42Z" transform="translate(-212.7 -56.65)"/><path class="cls-3" d="M229.88,299.62c7.81,6.66,17.34,7.81,22.61,7.86.24-1.47.5-2.91.76-4.32-4.78,0-15-1-22.39-8.53C230.52,296.26,230.19,297.93,229.88,299.62Z" transform="translate(-212.7 -56.65)"/><path class="cls-3" d="M241.55,262c-.75,1.61-1.48,3.28-2.2,5,5.43,8.73,14.09,12.6,19.83,14.26.51-1.39,1-2.74,1.57-4.06C255.18,275.6,246.08,271.62,241.55,262Z" transform="translate(-212.7 -56.65)"/><path class="cls-3" d="M257.31,236.92c-1.07,1.28-2.13,2.61-3.18,4,3.83,9.41,11.63,14.74,16.69,17.33.85-1.24,1.7-2.43,2.57-3.56C268.63,252.32,260.3,246.88,257.31,236.92Z" transform="translate(-212.7 -56.65)"/><rect class="cls-4" x="21.4" y="290.25" width="10.41" height="15.72"/><rect class="cls-3" x="10.92" y="282.24" width="31.32" height="12.53"/><polygon class="cls-4" points="31.91 302.73 53.31 320.3 40.19 344.54 33.72 344.54 33.72 335.45 39.98 335.45 39.98 317.27 31.91 317.27 31.91 302.73"/><polygon class="cls-4" points="21.4 302.73 0 320.3 13.13 344.54 19.59 344.54 19.59 335.45 13.33 335.45 13.33 317.27 21.4 317.27 21.4 302.73"/><path class="cls-2" d="M249.85,368.31V356.84H228.7v11.47a10.58,10.58,0,1,0,21.15,0Z" transform="translate(-212.7 -56.65)"/><path class="cls-4" d="M239.28,373.11a5.25,5.25,0,1,1,5.24-5.24A5.24,5.24,0,0,1,239.28,373.11Z" transform="translate(-212.7 -56.65)"/><path class="cls-2" d="M549.45,340h23.6c0-114.26-71.49-132.13-74.53-132.83l-5.32,23,2.66-11.5-2.77,11.47C495.39,230.75,549.45,245.44,549.45,340Z" transform="translate(-212.7 -56.65)"/><path class="cls-3" d="M572.68,326.42c.09,1.54.15,3.11.21,4.69a30.94,30.94,0,0,1-12.67,2.66,38.89,38.89,0,0,1-10.91-1.64c0-1.56-.11-3.1-.19-4.61C554.2,329.21,563.69,331.13,572.68,326.42Z" transform="translate(-212.7 -56.65)"/><path class="cls-3" d="M569.62,299.62c-7.81,6.66-17.34,7.81-22.61,7.86-.24-1.47-.5-2.91-.76-4.32,4.78,0,15-1,22.39-8.53C569,296.26,569.31,297.93,569.62,299.62Z" transform="translate(-212.7 -56.65)"/><path class="cls-3" d="M558,262c.75,1.61,1.48,3.28,2.2,5-5.43,8.73-14.09,12.6-19.83,14.26-.51-1.39-1-2.74-1.57-4.06C544.32,275.6,553.42,271.62,558,262Z" transform="translate(-212.7 -56.65)"/><path class="cls-3" d="M542.19,236.92c1.07,1.28,2.13,2.61,3.18,4-3.83,9.41-11.63,14.74-16.69,17.33q-1.27-1.86-2.57-3.56C530.87,252.32,539.2,246.88,542.19,236.92Z" transform="translate(-212.7 -56.65)"/><rect class="cls-4" x="342.29" y="290.25" width="10.41" height="15.72"/><rect class="cls-3" x="331.87" y="282.24" width="31.32" height="12.53"/><polygon class="cls-4" points="342.2 302.73 320.79 320.3 333.92 344.54 340.38 344.54 340.38 335.45 334.12 335.45 334.12 317.27 342.2 317.27 342.2 302.73"/><polygon class="cls-4" points="352.7 302.73 374.11 320.3 360.98 344.54 354.52 344.54 354.52 335.45 360.78 335.45 360.78 317.27 352.7 317.27 352.7 302.73"/><path class="cls-2" d="M549.65,368.31V356.84H570.8v11.47a10.58,10.58,0,1,1-21.15,0Z" transform="translate(-212.7 -56.65)"/><path class="cls-4" d="M560.22,373.11a5.25,5.25,0,1,0-5.24-5.24A5.24,5.24,0,0,0,560.22,373.11Z" transform="translate(-212.7 -56.65)"/><path class="cls-4" d="M277.39,218.7a25.37,25.37,0,1,1,25.37,25.37A25.37,25.37,0,0,1,277.39,218.7Z" transform="translate(-212.7 -56.65)"/><path class="cls-4" d="M471.37,218.7a25.37,25.37,0,1,1,25.37,25.37A25.37,25.37,0,0,1,471.37,218.7Z" transform="translate(-212.7 -56.65)"/><path class="cls-2" d="M491.77,464.32h23.6c0-114.27-71.48-132.13-74.52-132.84l-5.33,23L438.18,343l-2.76,11.47C437.72,355,491.77,369.71,491.77,464.32Z" transform="translate(-212.7 -56.65)"/><path class="cls-3" d="M515,450.69c.08,1.55.15,3.11.2,4.69A30.89,30.89,0,0,1,502.55,458a38.41,38.41,0,0,1-10.91-1.64c-.05-1.56-.12-3.1-.2-4.61C496.53,453.48,506,455.41,515,450.69Z" transform="translate(-212.7 -56.65)"/><path class="cls-3" d="M511.94,423.9c-7.8,6.65-17.33,7.8-22.61,7.86-.24-1.47-.49-2.91-.76-4.33,4.78,0,15-.95,22.39-8.53C511.3,420.54,511.63,422.2,511.94,423.9Z" transform="translate(-212.7 -56.65)"/><path class="cls-3" d="M500.27,386.27c.76,1.61,1.49,3.28,2.2,5-5.42,8.73-14.08,12.59-19.83,14.26-.51-1.39-1-2.75-1.56-4.06C486.64,399.88,495.75,395.89,500.27,386.27Z" transform="translate(-212.7 -56.65)"/><path class="cls-3" d="M484.52,361.19q1.59,1.92,3.17,4c-3.82,9.41-11.62,14.74-16.68,17.34-.85-1.25-1.71-2.43-2.57-3.57C473.2,376.59,481.53,371.15,484.52,361.19Z" transform="translate(-212.7 -56.65)"/><rect class="cls-3" x="274.19" y="406.52" width="31.32" height="12.53"/><path class="cls-2" d="M546,499.49a16.37,16.37,0,0,0,.42-3.63c0-14.61-19.62-26.46-43.83-26.46s-43.84,11.85-43.84,26.46a16.37,16.37,0,0,0,.42,3.63Z" transform="translate(-212.7 -56.65)"/><rect class="cls-3" x="246.44" y="442.84" width="87.25" height="11.01"/><path class="cls-4" d="M422.44,346.9a25.37,25.37,0,1,1,25.37,25.37A25.37,25.37,0,0,1,422.44,346.9Z" transform="translate(-212.7 -56.65)"/><path class="cls-2" d="M307.73,464.32h-23.6c0-114.27,71.48-132.13,74.52-132.84l5.33,23L361.32,343l2.76,11.47C361.78,355,307.73,369.71,307.73,464.32Z" transform="translate(-212.7 -56.65)"/><path class="cls-3" d="M284.49,450.69c-.08,1.55-.15,3.11-.2,4.69A30.89,30.89,0,0,0,297,458a38.41,38.41,0,0,0,10.91-1.64c.05-1.56.12-3.1.2-4.61C303,453.48,293.49,455.41,284.49,450.69Z" transform="translate(-212.7 -56.65)"/><path class="cls-3" d="M287.56,423.9c7.8,6.65,17.33,7.8,22.61,7.86.24-1.47.49-2.91.76-4.33-4.78,0-15-.95-22.39-8.53C288.2,420.54,287.87,422.2,287.56,423.9Z" transform="translate(-212.7 -56.65)"/><path class="cls-3" d="M299.23,386.27c-.76,1.61-1.49,3.28-2.2,5,5.42,8.73,14.08,12.59,19.83,14.26.51-1.39,1-2.75,1.56-4.06C312.86,399.88,303.75,395.89,299.23,386.27Z" transform="translate(-212.7 -56.65)"/><path class="cls-3" d="M315,361.19q-1.61,1.92-3.17,4c3.82,9.41,11.62,14.74,16.68,17.34.85-1.25,1.71-2.43,2.57-3.57C326.3,376.59,318,371.15,315,361.19Z" transform="translate(-212.7 -56.65)"/><rect class="cls-3" x="68.59" y="406.52" width="31.32" height="12.53"/><path class="cls-2" d="M253.54,499.49a16.37,16.37,0,0,1-.42-3.63c0-14.61,19.62-26.46,43.83-26.46s43.84,11.85,43.84,26.46a16.37,16.37,0,0,1-.42,3.63Z" transform="translate(-212.7 -56.65)"/><rect class="cls-3" x="40.42" y="442.84" width="87.25" height="11.01"/><path class="cls-4" d="M377.06,346.9a25.37,25.37,0,1,0-25.37,25.37A25.37,25.37,0,0,0,377.06,346.9Z" transform="translate(-212.7 -56.65)"/><rect class="cls-2" x="153.62" y="126.06" width="66.87" height="25.96"/><rect class="cls-3" x="235.37" y="61.03" width="47.99" height="10.49"/><rect class="cls-3" x="90.75" y="61.03" width="47.99" height="10.49"/><path class="cls-4" d="M472.06,133.71a10.23,10.23,0,0,1-10.22,10.23h0a10.23,10.23,0,0,1-10.23-10.23V111.88a10.23,10.23,0,0,1,10.23-10.23h0a10.23,10.23,0,0,1,10.22,10.23Z" transform="translate(-212.7 -56.65)"/><path class="cls-4" d="M347.77,133.71a10.23,10.23,0,0,1-10.23,10.23h0a10.23,10.23,0,0,1-10.22-10.23V111.88a10.23,10.23,0,0,1,10.22-10.23h0a10.23,10.23,0,0,1,10.23,10.23Z" transform="translate(-212.7 -56.65)"/><path class="cls-3" d="M461.46,188.94a63.91,63.91,0,0,0,.38-6.82V118.8a62.15,62.15,0,1,0-124.3,0v63.32a63.91,63.91,0,0,0,.38,6.82Z" transform="translate(-212.7 -56.65)"/><path class="cls-5" d="M337.92,112v77h61.77V56.65A62.16,62.16,0,0,0,337.92,112Z" transform="translate(-212.7 -56.65)"/><path class="cls-6" d="M444.27,156.75a17.83,17.83,0,0,1-17.83,17.83h-53.5a17.83,17.83,0,0,1-17.83-17.83h0a17.83,17.83,0,0,1,17.83-17.83h53.5a17.83,17.83,0,0,1,17.83,17.83Z" transform="translate(-212.7 -56.65)"/><path class="cls-4" d="M379.07,147.12a17.78,17.78,0,0,0-16.73,23.94,17.64,17.64,0,0,0,10.6,3.52h53.5a17.78,17.78,0,0,0,16.73-23.94,17.76,17.76,0,0,0-10.61-3.52Z" transform="translate(-212.7 -56.65)"/><path class="cls-2" d="M426.44,138.92a17.83,17.83,0,0,1,0,35.66h-53.5a17.83,17.83,0,1,1,0-35.66h53.5m0-4.72h-53.5a22.55,22.55,0,1,0,0,45.1h53.5a22.55,22.55,0,1,0,0-45.1Z" transform="translate(-212.7 -56.65)"/><path class="cls-7" d="M356,157.92c4,0,4-4.66,7.94-4.66s4,11.65,7.94,11.65,4-7,4-7,0-11.66,4-11.66,4,11.66,4,11.66,0,9.32,4,9.32,4-9.32,4-9.32,0-9.32,4-9.32,4,21,7.94,21,4-25.64,7.94-25.64,4,18.65,7.94,18.65,4-9.32,7.93-9.32,4,7,7.94,7,4.21-4.66,7.94-4.66" transform="translate(-212.7 -56.65)"/><circle class="cls-2" cx="160.1" cy="48.18" r="22.03"/><path class="cls-8" d="M389.05,104.83a16.26,16.26,0,1,1-16.26-16.25A16.26,16.26,0,0,1,389.05,104.83Z" transform="translate(-212.7 -56.65)"/><circle class="cls-2" cx="213.89" cy="48.18" r="22.03"/><path class="cls-8" d="M442.84,104.83a16.26,16.26,0,1,1-16.25-16.25A16.26,16.26,0,0,1,442.84,104.83Z" transform="translate(-212.7 -56.65)"/><circle class="cls-4" cx="283.36" cy="66.27" r="9.17"/><path class="cls-4" d="M312.61,122.79a9.17,9.17,0,1,1-9.16-9.16A9.16,9.16,0,0,1,312.61,122.79Z" transform="translate(-212.7 -56.65)"/><path class="cls-3" d="M439.27,200.74h-79a48.76,48.76,0,0,0-48.77,48.77c0,26.94,6.15,34,15.73,58S349,356.3,376,356.3h47.58c26.93,0,39.18-24.75,48.77-48.77s15.73-31.08,15.73-58A48.76,48.76,0,0,0,439.27,200.74Z" transform="translate(-212.7 -56.65)"/><path class="cls-8" d="M399.69,230.81A36.18,36.18,0,0,0,363.51,267h72.36A36.18,36.18,0,0,0,399.69,230.81Z" transform="translate(-212.7 -56.65)"/><path class="cls-2" d="M399.69,233.35A33.64,33.64,0,0,1,433.33,267h5.16a38.8,38.8,0,0,0-77.6,0h5.16A33.64,33.64,0,0,1,399.69,233.35Z" transform="translate(-212.7 -56.65)"/><path class="cls-2" d="M402.37,262.79a3.75,3.75,0,1,1-3.75-3.75A3.74,3.74,0,0,1,402.37,262.79Z" transform="translate(-212.7 -56.65)"/><path class="cls-4" d="M395.05,246.82l5.34,15.49a1.85,1.85,0,0,1-3.49,1.21c0-.08,0-.17-.06-.24l-3.22-16.07a.74.74,0,0,1,1.43-.39Z" transform="translate(-212.7 -56.65)"/><rect class="cls-4" x="398.62" y="236.47" width="2.2" height="7.08" transform="translate(-214.72 -53.26) rotate(-0.49)"/><rect class="cls-4" x="391.64" y="237.4" width="2.2" height="7.08" transform="translate(-262.77 56.96) rotate(-15.49)"/><rect class="cls-4" x="385.13" y="240.1" width="2.2" height="7.08" transform="translate(-282.91 172.97) rotate(-30.49)"/><rect class="cls-4" x="379.55" y="244.39" width="2.2" height="7.08" transform="translate(-275.7 288.91) rotate(-45.49)"/><rect class="cls-4" x="375.27" y="249.99" width="2.2" height="7.08" transform="translate(-242.35 399.53) rotate(-60.49)"/><rect class="cls-4" x="372.58" y="256.5" width="2.2" height="7.08" transform="translate(-184.38 499.99) rotate(-75.49)"/><rect class="cls-4" x="422.26" y="258.88" width="7.08" height="2.2" transform="translate(-266.75 66.81) rotate(-15.53)"/><rect class="cls-4" x="419.56" y="252.37" width="7.08" height="2.2" transform="translate(-282.8 193.1) rotate(-30.49)"/><rect class="cls-4" x="415.27" y="246.79" width="7.08" height="2.2" transform="translate(-264.28 316.09) rotate(-45.49)"/><rect class="cls-4" x="409.68" y="242.51" width="7.08" height="2.2" transform="translate(-214.92 426.77) rotate(-60.52)"/><rect class="cls-4" x="403.17" y="239.82" width="7.08" height="2.2" transform="translate(-141.32 517.44) rotate(-75.46)"/><path class="cls-5" d="M398.62,200.74H360.23a48.76,48.76,0,0,0-48.77,48.77c0,26.94,6.15,34,15.73,58S349,356.3,376,356.3h22.66Z" transform="translate(-212.7 -56.65)"/></g></g></svg>