<svg width="87" height="109" viewBox="0 0 87 109" fill="none" xmlns="http://www.w3.org/2000/svg">
<path d="M83.3314 32.0187L3.59187 0.5V72.1578L83.3314 40.6392C87.1029 39.0228 87.1029 33.635 83.3314 32.0187Z" fill="url(#paint0_linear_1_27)"/>
<path opacity="0.2" d="M6.28577 4.45106L82.2538 34.4432C83.3314 34.8922 83.4212 35.8799 83.4212 36.2391C83.4212 36.5983 83.3314 37.5861 82.2538 38.035L6.28577 68.117V4.45106ZM3.59187 0.5V72.1578L83.3314 40.6392C87.1029 39.0228 87.1029 33.635 83.3314 32.0187L3.59187 0.5Z" fill="#424242"/>
<path d="M5.29801 108.256H1.97553C0.897968 108.256 0.0897971 107.358 0.0897971 106.37V4.09187C0.0897971 2.11634 1.70614 0.5 3.68167 0.5C5.6572 0.5 7.27354 2.11634 7.27354 4.09187V106.37C7.18374 107.448 6.37557 108.256 5.29801 108.256Z" fill="#EDC970"/>
<path opacity="0.2" d="M3.59187 2.29594C4.57963 2.29594 5.38781 3.10411 5.38781 4.09187V106.37C5.38781 106.46 5.29801 106.46 5.29801 106.46H1.97553C1.88573 106.46 1.88573 106.37 1.88573 106.37V4.09187C1.79594 3.10411 2.60411 2.29594 3.59187 2.29594ZM3.59187 0.5C1.61634 0.5 0 2.11634 0 4.09187V106.37C0 107.448 0.897968 108.256 1.88573 108.256H5.20821C6.28577 108.256 7.09394 107.358 7.09394 106.37V4.09187C7.18374 2.11634 5.5674 0.5 3.59187 0.5Z" fill="#424242"/>
<defs>
<linearGradient id="paint0_linear_1_27" x1="3.59187" y1="36.3289" x2="86.16" y2="36.3289" gradientUnits="userSpaceOnUse">
<stop stop-color="#D32F2F"/>
<stop offset="1" stop-color="#F44336"/>
</linearGradient>
</defs>
</svg>
