<?xml version="1.0" encoding="UTF-8" standalone="no"?>
<svg
   xmlns:dc="http://purl.org/dc/elements/1.1/"
   xmlns:cc="http://creativecommons.org/ns#"
   xmlns:rdf="http://www.w3.org/1999/02/22-rdf-syntax-ns#"
   xmlns:svg="http://www.w3.org/2000/svg"
   xmlns="http://www.w3.org/2000/svg"
   xmlns:sodipodi="http://sodipodi.sourceforge.net/DTD/sodipodi-0.dtd"
   xmlns:inkscape="http://www.inkscape.org/namespaces/inkscape"
   width="711"
   height="644"
   viewBox="0 0 711 644"
   fill="none"
   version="1.1"
   id="svg18"
   sodipodi:docname="bird.svg"
   inkscape:version="0.92.4 (5da689c313, 2019-01-14)">
  <metadata
     id="metadata24">
    <rdf:RDF>
      <cc:Work
         rdf:about="">
        <dc:format>image/svg+xml</dc:format>
        <dc:type
           rdf:resource="http://purl.org/dc/dcmitype/StillImage" />
      </cc:Work>
    </rdf:RDF>
  </metadata>
  <defs
     id="defs22" />
  <sodipodi:namedview
     pagecolor="#ffffff"
     bordercolor="#666666"
     borderopacity="1"
     objecttolerance="10"
     gridtolerance="10"
     guidetolerance="10"
     inkscape:pageopacity="0"
     inkscape:pageshadow="2"
     inkscape:window-width="1607"
     inkscape:window-height="1116"
     id="namedview20"
     showgrid="false"
     inkscape:zoom="0.36645963"
     inkscape:cx="355.5"
     inkscape:cy="322"
     inkscape:window-x="0"
     inkscape:window-y="0"
     inkscape:window-maximized="0"
     inkscape:current-layer="svg18" />
  <path
     d="M650.208 102.701C641.147 74.2414 622.632 49.5301 614.508 40.732C565.531 -1.95806 517.586 12.9031 481.313 40.732L36.1348 486.137C168.613 493.262 456.939 492.105 550.419 430.479C639.566 371.711 657.363 232.54 655.762 154.056M650.208 102.701L697.235 154.056H655.762M650.208 102.701C652.893 111.136 655.264 129.665 655.762 154.056"
     stroke="#A7A7A7"
     stroke-width="27.1366"
     stroke-linejoin="round"
     id="path2"
     style="stroke:#000000" />
  <path
     d="M127.321 490.44L9.03711 605.916C27.5802 621.121 72.0646 646.971 101.657 628.724C131.25 610.477 215.592 528.932 254.064 490.44"
     stroke="#A7A7A7"
     stroke-width="17"
     stroke-linejoin="round"
     id="path4"
     style="stroke:#000000" />
  <path
     d="M83.4492 435.644C129.52 436.552 243.513 427.295 298.224 363.489C352.936 299.684 354.284 215.26 348.119 181.024"
     stroke="#A7A7A7"
     stroke-width="16.9604"
     stroke-linejoin="round"
     id="path6"
     style="stroke:#000000" />
  <path
     d="M83.4492 489.367C139.224 490.467 340.953 473.464 407.189 396.196C473.425 318.927 386.686 195.943 360.736 165.388"
     stroke="#A7A7A7"
     stroke-width="16.9604"
     stroke-linejoin="round"
     id="path8"
     style="stroke:#000000" />
  <path
     d="M357.58 480.686L325.178 539.5"
     stroke="#A7A7A7"
     stroke-width="16.9604"
     stroke-linecap="round"
     stroke-linejoin="round"
     id="path10"
     style="stroke:#000000" />
  <path
     d="M385.395 477.674L407.044 514.683"
     stroke="#A7A7A7"
     stroke-width="16.9604"
     stroke-linecap="round"
     stroke-linejoin="round"
     id="path12"
     style="stroke:#000000" />
  <ellipse
     cx="564.04"
     cy="129.67"
     rx="19.2122"
     ry="19.222"
     fill="#A7A7A7"
     id="ellipse14"
     style="fill:#000000" />
  <path
     d="M178.506 496.322L46.6016 625.138"
     stroke="#A7A7A7"
     stroke-width="10"
     stroke-linecap="round"
     stroke-linejoin="round"
     id="path16"
     style="stroke:#000000" />
</svg>
