<?xml version="1.0" encoding="UTF-8" standalone="no"?>
<!-- Generated by IcoMoon.io -->

<svg
   version="1.1"
   width="36"
   height="36"
   viewBox="0 0 36 36"
   id="svg8"
   sodipodi:docname="player__volume-btn_mute.svg"
   inkscape:version="1.2.2 (732a01da63, 2022-12-09)"
   xmlns:inkscape="http://www.inkscape.org/namespaces/inkscape"
   xmlns:sodipodi="http://sodipodi.sourceforge.net/DTD/sodipodi-0.dtd"
   xmlns="http://www.w3.org/2000/svg"
   xmlns:svg="http://www.w3.org/2000/svg"
   xmlns:rdf="http://www.w3.org/1999/02/22-rdf-syntax-ns#"
   xmlns:cc="http://creativecommons.org/ns#"
   xmlns:dc="http://purl.org/dc/elements/1.1/">
  <defs
     id="defs12" />
  <sodipodi:namedview
     id="namedview10"
     pagecolor="#ffffff"
     bordercolor="#000000"
     borderopacity="0.25"
     inkscape:showpageshadow="2"
     inkscape:pageopacity="0.0"
     inkscape:pagecheckerboard="0"
     inkscape:deskcolor="#d1d1d1"
     showgrid="false"
     inkscape:zoom="23.027778"
     inkscape:cx="17.131484"
     inkscape:cy="18.021713"
     inkscape:window-width="1920"
     inkscape:window-height="1009"
     inkscape:window-x="-8"
     inkscape:window-y="-8"
     inkscape:window-maximized="1"
     inkscape:current-layer="svg8" />
  <title
     id="title2">mute</title>
  <path
     fill="#b3b3b3"
     d="M18.405 2.387c-0.445 0-0.831 0.163-1.156 0.488l-8.556 8.556h-6.732c-0.446 0-0.831 0.163-1.156 0.488s-0.488 0.711-0.488 1.156v9.865c0 0.445 0.163 0.831 0.488 1.156s0.711 0.488 1.156 0.488h6.732l8.556 8.556c0.326 0.325 0.711 0.488 1.156 0.488s0.831-0.163 1.156-0.488 0.488-0.711 0.488-1.156v-27.955c0-0.445-0.163-0.831-0.488-1.156s-0.711-0.488-1.156-0.488z"
     id="path4"
     style="fill:#ffffff" />
  <path
     fill="#b3b3b3"
     d="M31.902 18.679l3.468-3.468c0.22-0.22 0.33-0.488 0.33-0.802s-0.11-0.582-0.33-0.802l-1.604-1.604c-0.22-0.22-0.488-0.33-0.802-0.33s-0.582 0.11-0.802 0.33l-3.468 3.468-3.468-3.468c-0.22-0.22-0.488-0.33-0.802-0.33s-0.582 0.11-0.802 0.33l-1.604 1.604c-0.22 0.22-0.33 0.488-0.33 0.802s0.11 0.582 0.33 0.802l3.468 3.468-3.468 3.468c-0.22 0.22-0.33 0.488-0.33 0.802s0.11 0.582 0.33 0.802l1.604 1.604c0.22 0.22 0.488 0.33 0.802 0.33s0.582-0.11 0.802-0.33l3.468-3.468 3.468 3.468c0.22 0.22 0.487 0.33 0.802 0.33s0.582-0.11 0.802-0.33l1.604-1.604c0.22-0.22 0.33-0.488 0.33-0.802s-0.11-0.582-0.33-0.802l-3.468-3.468z"
     id="path6"
     style="fill:#ffffff" />
  <metadata
     id="metadata172">
    <rdf:RDF>
      <cc:Work
         rdf:about="">
        <dc:title>mute</dc:title>
      </cc:Work>
    </rdf:RDF>
  </metadata>
</svg>
